<?xml version="1.0" encoding="UTF-8" standalone="no"?>
<!DOCTYPE svg PUBLIC "-//W3C//DTD SVG 1.1//EN"
 "http://www.w3.org/Graphics/SVG/1.1/DTD/svg11.dtd">
<!-- Generated by graphviz version 2.38.0 (20140413.2041)
 -->
<!-- Title: %3 Pages: 1 -->
<svg width="408pt" height="707pt"
 viewBox="0.00 0.00 408.00 707.00" xmlns="http://www.w3.org/2000/svg" xmlns:xlink="http://www.w3.org/1999/xlink">
<g id="graph0" class="graph" transform="scale(1 1) rotate(0) translate(4 703)">
<title>%3</title>
<polygon fill="white" stroke="none" points="-4,4 -4,-703 404,-703 404,4 -4,4"/>
<text text-anchor="middle" x="200" y="-7.8" font-family="Times,serif" font-size="14.00">Case recruitment</text>
<!-- A -->
<g id="node1" class="node"><title>A</title>
<polygon fill="none" stroke="black" points="200.5,-699 26.5,-699 26.5,-525 200.5,-525 200.5,-699"/>
<text text-anchor="middle" x="113.5" y="-630.8" font-family="Helvetica,sans-Serif" font-size="14.00">Inclusion criteria:</text>
<text text-anchor="middle" x="113.5" y="-615.8" font-family="Helvetica,sans-Serif" font-size="14.00"> Male </text>
<text text-anchor="middle" x="113.5" y="-600.8" font-family="Helvetica,sans-Serif" font-size="14.00"> Diagnosis of IPF between</text>
<text text-anchor="middle" x="113.5" y="-585.8" font-family="Helvetica,sans-Serif" font-size="14.00"> 02.17 and 10.19</text>
</g>
<!-- B -->
<g id="node2" class="node"><title>B</title>
<polygon fill="none" stroke="black" points="227,-489 0,-489 0,-262 227,-262 227,-489"/>
<text text-anchor="middle" x="113.5" y="-416.8" font-family="Helvetica,sans-Serif" font-size="14.00">Patients provided with:</text>
<text text-anchor="middle" x="113.5" y="-401.8" font-family="Helvetica,sans-Serif" font-size="14.00"> Participant information sheet</text>
<text text-anchor="middle" x="113.5" y="-386.8" font-family="Helvetica,sans-Serif" font-size="14.00"> Participant job history sheet</text>
<text text-anchor="middle" x="113.5" y="-371.8" font-family="Helvetica,sans-Serif" font-size="14.00"> and enrolled at </text>
<text text-anchor="middle" x="113.5" y="-356.8" font-family="Helvetica,sans-Serif" font-size="14.00"> outpatient department attendance.</text>
<text text-anchor="middle" x="113.5" y="-341.8" font-family="Helvetica,sans-Serif" font-size="14.00"> Blood drawn and</text>
<text text-anchor="middle" x="113.5" y="-326.8" font-family="Helvetica,sans-Serif" font-size="14.00"> Case Report Form completed</text>
</g>
<!-- A&#45;&gt;B -->
<g id="edge2" class="edge"><title>A&#45;&gt;B</title>
<path fill="none" stroke="black" d="M113.5,-524.68C113.5,-516.326 113.5,-507.747 113.5,-499.128"/>
<polygon fill="black" stroke="black" points="113.5,-489.004 118,-499.004 113.5,-494.004 113.5,-499.004 113.5,-499.004 113.5,-499.004 113.5,-494.004 109,-499.005 113.5,-489.004 113.5,-489.004"/>
</g>
<!-- C -->
<g id="node3" class="node"><title>C</title>
<polygon fill="none" stroke="black" points="400,-453 245,-453 245,-298 400,-298 400,-453"/>
<text text-anchor="middle" x="322.5" y="-431.8" font-family="Helvetica,sans-Serif" font-size="14.00">Exclusion criteria:</text>
<text text-anchor="middle" x="322.5" y="-416.8" font-family="Helvetica,sans-Serif" font-size="14.00"> Unable to consent</text>
<text text-anchor="middle" x="322.5" y="-401.8" font-family="Helvetica,sans-Serif" font-size="14.00"> Ever worked outside</text>
<text text-anchor="middle" x="322.5" y="-386.8" font-family="Helvetica,sans-Serif" font-size="14.00"> the UK</text>
<text text-anchor="middle" x="322.5" y="-371.8" font-family="Helvetica,sans-Serif" font-size="14.00">(does not include work </text>
<text text-anchor="middle" x="322.5" y="-356.8" font-family="Helvetica,sans-Serif" font-size="14.00"> outside the UK </text>
<text text-anchor="middle" x="322.5" y="-341.8" font-family="Helvetica,sans-Serif" font-size="14.00"> by members of the </text>
<text text-anchor="middle" x="322.5" y="-326.8" font-family="Helvetica,sans-Serif" font-size="14.00"> armed forces</text>
<text text-anchor="middle" x="322.5" y="-311.8" font-family="Helvetica,sans-Serif" font-size="14.00"> or merchant navy)</text>
</g>
<!-- B&#45;&gt;C -->
<g id="edge1" class="edge"><title>B&#45;&gt;C</title>
<path fill="none" stroke="black" d="M227.389,-375.5C229.844,-375.5 232.3,-375.5 234.755,-375.5"/>
<polygon fill="black" stroke="black" points="244.851,-375.5 234.851,-380 239.851,-375.5 234.851,-375.5 234.851,-375.5 234.851,-375.5 239.851,-375.5 234.85,-371 244.851,-375.5 244.851,-375.5"/>
</g>
<!-- D -->
<g id="node4" class="node"><title>D</title>
<polygon fill="none" stroke="black" points="215,-226 12,-226 12,-23 215,-23 215,-226"/>
<text text-anchor="middle" x="113.5" y="-128.3" font-family="Helvetica,sans-Serif" font-size="14.00">Central research team updated</text>
<text text-anchor="middle" x="113.5" y="-113.3" font-family="Helvetica,sans-Serif" font-size="14.00"> monthly</text>
</g>
<!-- B&#45;&gt;D -->
<g id="edge3" class="edge"><title>B&#45;&gt;D</title>
<path fill="none" stroke="black" d="M113.5,-261.657C113.5,-253.24 113.5,-244.753 113.5,-236.349"/>
<polygon fill="black" stroke="black" points="113.5,-226.15 118,-236.15 113.5,-231.15 113.5,-236.15 113.5,-236.15 113.5,-236.15 113.5,-231.15 109,-236.15 113.5,-226.15 113.5,-226.15"/>
</g>
</g>
</svg>
